<svg width="102" height="102" viewBox="0 0 102 102" fill="none" xmlns="http://www.w3.org/2000/svg">
<g id="Group">
<g id="Group_2">
<path id="Vector" d="M91.5294 0.351562H9.61617C4.49947 0.351562 0.351562 4.50954 0.351562 9.63867V91.7507C0.351562 96.8798 4.49947 101.038 9.61617 101.038H91.5294C96.646 101.038 100.794 96.8798 100.794 91.7507V9.63867C100.794 4.50954 96.646 0.351562 91.5294 0.351562Z" fill="#130C49"/>
<path id="Vector_2" d="M91.5378 101.389H9.61511C4.31022 101.389 0 97.0683 0 91.7505V9.63846C0 4.32069 4.31022 0 9.61511 0H91.5283C96.8332 0 101.143 4.32069 101.143 9.63846V91.7505C101.143 97.0683 96.8332 101.389 91.5283 101.389H91.5378ZM9.61511 0.702703C4.69862 0.702703 0.710476 4.71002 0.710476 9.62896V91.741C0.710476 96.66 4.70809 100.667 9.61511 100.667H91.5283C96.4448 100.667 100.433 96.66 100.433 91.741V9.62896C100.433 4.71002 96.4353 0.702703 91.5283 0.702703H9.61511Z" fill="#A590DD"/>
</g>
<g id="Group_3">
<g id="Group_4">
<path id="Vector_3" d="M41.4652 56.0928H17.9721C16.0416 56.0928 14.4766 57.6616 14.4766 59.5968V83.1469C14.4766 85.0821 16.0416 86.651 17.9721 86.651H41.4652C43.3957 86.651 44.9607 85.0821 44.9607 83.1469V59.5968C44.9607 57.6616 43.3957 56.0928 41.4652 56.0928Z" fill="#130C49"/>
<path id="Vector_4" d="M41.4637 86.8885H17.9706C15.915 86.8885 14.2383 85.2077 14.2383 83.147V59.5969C14.2383 57.5363 15.915 55.8555 17.9706 55.8555H41.4637C43.5194 55.8555 45.1961 57.5363 45.1961 59.5969V83.147C45.1961 85.2077 43.5194 86.8885 41.4637 86.8885ZM17.9706 56.3303C16.1708 56.3303 14.7119 57.7927 14.7119 59.5969V83.147C14.7119 84.9513 16.1708 86.4137 17.9706 86.4137H41.4637C43.2636 86.4137 44.7225 84.9513 44.7225 83.147V59.5969C44.7225 57.7927 43.2636 56.3303 41.4637 56.3303H17.9706Z" fill="#61BD73"/>
</g>
<g id="Group_5">
<path id="Vector_5" d="M37.2116 63.3481H27.9375V72.6447H37.2116V63.3481Z" fill="#130C49"/>
<path id="Vector_6" d="M37.447 72.8822H27.6992V63.1108H37.447V72.8822ZM28.1729 72.4074H36.9733V63.5856H28.1729V72.4074Z" fill="#A590DD"/>
</g>
<path id="Vector_7" d="M31.4889 69.9951H22.2148V79.2917H31.4889V69.9951Z" fill="#61BD73"/>
<g id="Group_6">
<path id="Vector_8" d="M41.4652 14.7378H17.9721C16.0416 14.7378 14.4766 16.3066 14.4766 18.2418V41.7919C14.4766 43.7272 16.0416 45.296 17.9721 45.296H41.4652C43.3957 45.296 44.9607 43.7272 44.9607 41.7919V18.2418C44.9607 16.3066 43.3957 14.7378 41.4652 14.7378Z" fill="#130C49"/>
<path id="Vector_9" d="M41.4637 45.5335H17.9706C15.915 45.5335 14.2383 43.8527 14.2383 41.792V18.2419C14.2383 16.1813 15.915 14.5005 17.9706 14.5005H41.4637C43.5194 14.5005 45.1961 16.1813 45.1961 18.2419V41.792C45.1961 43.8527 43.5194 45.5335 41.4637 45.5335ZM17.9706 14.9753C16.1708 14.9753 14.7119 16.4377 14.7119 18.2419V41.792C14.7119 43.5963 16.1708 45.0587 17.9706 45.0587H41.4637C43.2636 45.0587 44.7225 43.5963 44.7225 41.792V18.2419C44.7225 16.4377 43.2636 14.9753 41.4637 14.9753H17.9706Z" fill="#61BD73"/>
</g>
<g id="Group_7">
<path id="Vector_10" d="M35.003 32.97V25.1548L28.2487 21.252L21.5039 25.1548V32.97L28.2487 36.8824L35.003 32.97Z" fill="#61BD73"/>
<path id="Vector_11" d="M37.9191 30.0737H32.0742V35.9328H37.9191V30.0737Z" fill="#A590DD"/>
</g>
<g id="Group_8">
<path id="Vector_12" d="M83.1839 14.7378H59.6909C57.7603 14.7378 56.1953 16.3066 56.1953 18.2418V41.7919C56.1953 43.7272 57.7603 45.296 59.6909 45.296H83.1839C85.1145 45.296 86.6795 43.7272 86.6795 41.7919V18.2418C86.6795 16.3066 85.1145 14.7378 83.1839 14.7378Z" fill="#130C49"/>
<path id="Vector_13" d="M83.1825 45.5335H59.6894C57.6338 45.5335 55.957 43.8527 55.957 41.792V18.2419C55.957 16.1813 57.6338 14.5005 59.6894 14.5005H83.1825C85.2381 14.5005 86.9149 16.1813 86.9149 18.2419V41.792C86.9149 43.8527 85.2381 45.5335 83.1825 45.5335ZM59.6894 14.9753C57.8895 14.9753 56.4307 16.4377 56.4307 18.2419V41.792C56.4307 43.5963 57.8895 45.0587 59.6894 45.0587H83.1825C84.9824 45.0587 86.4412 43.5963 86.4412 41.792V18.2419C86.4412 16.4377 84.9824 14.9753 83.1825 14.9753H59.6894Z" fill="#61BD73"/>
</g>
<g id="Group_9">
<path id="Vector_14" d="M62.8071 32.03C64.4395 32.03 65.7627 30.7035 65.7627 29.0672C65.7627 27.431 64.4395 26.1045 62.8071 26.1045C61.1748 26.1045 59.8516 27.431 59.8516 29.0672C59.8516 30.7035 61.1748 32.03 62.8071 32.03Z" fill="#61BD73"/>
<path id="Vector_15" d="M71.4361 32.03C73.0684 32.03 74.3916 30.7035 74.3916 29.0672C74.3916 27.431 73.0684 26.1045 71.4361 26.1045C69.8037 26.1045 68.4805 27.431 68.4805 29.0672C68.4805 30.7035 69.8037 32.03 71.4361 32.03Z" fill="#A590DD"/>
<path id="Vector_16" d="M80.0689 32.03C81.7012 32.03 83.0244 30.7035 83.0244 29.0672C83.0244 27.431 81.7012 26.1045 80.0689 26.1045C78.4365 26.1045 77.1133 27.431 77.1133 29.0672C77.1133 30.7035 78.4365 32.03 80.0689 32.03Z" fill="#61BD73"/>
</g>
<g id="Group_10">
<path id="Vector_17" d="M83.1839 56.0928H59.6909C57.7603 56.0928 56.1953 57.6616 56.1953 59.5968V83.1469C56.1953 85.0821 57.7603 86.651 59.6909 86.651H83.1839C85.1145 86.651 86.6795 85.0821 86.6795 83.1469V59.5968C86.6795 57.6616 85.1145 56.0928 83.1839 56.0928Z" fill="#130C49"/>
<path id="Vector_18" d="M83.1825 86.8885H59.6894C57.6338 86.8885 55.957 85.2077 55.957 83.147V59.5969C55.957 57.5363 57.6338 55.8555 59.6894 55.8555H83.1825C85.2381 55.8555 86.9149 57.5363 86.9149 59.5969V83.147C86.9149 85.2077 85.2381 86.8885 83.1825 86.8885ZM59.6894 56.3303C57.8895 56.3303 56.4307 57.7927 56.4307 59.5969V83.147C56.4307 84.9513 57.8895 86.4137 59.6894 86.4137H83.1825C84.9824 86.4137 86.4412 84.9513 86.4412 83.147V59.5969C86.4412 57.7927 84.9824 56.3303 83.1825 56.3303H59.6894Z" fill="#61BD73"/>
</g>
<path id="Vector_19" d="M76.1243 70.2895C77.8822 70.2895 79.3073 68.861 79.3073 67.0989C79.3073 65.3367 77.8822 63.9082 76.1243 63.9082C74.3665 63.9082 72.9414 65.3367 72.9414 67.0989C72.9414 68.861 74.3665 70.2895 76.1243 70.2895Z" fill="#61BD73"/>
<path id="Vector_20" d="M69.3247 74.8759L70.7836 76.3478C71.0962 76.6612 71.2572 76.9366 71.2572 77.155C71.2572 77.3734 71.0962 77.6488 70.7836 77.9526C70.4709 78.2565 70.2057 78.418 69.9878 78.418C69.7699 78.418 69.5047 78.2565 69.1921 77.9432L67.7522 76.4808L66.2933 77.9432C65.9807 78.2565 65.7155 78.418 65.4976 78.418C65.2797 78.418 65.0145 78.266 64.7019 77.9526C64.3798 77.6393 64.2188 77.3734 64.2188 77.155C64.2188 76.9366 64.3798 76.6612 64.6924 76.3478L66.1512 74.8759L64.6924 73.4041C64.3798 73.0907 64.2188 72.8153 64.2188 72.5969C64.2188 72.3785 64.3798 72.1031 64.7019 71.7897C65.024 71.4764 65.2892 71.3149 65.4976 71.3149C65.706 71.3149 65.9807 71.4764 66.2933 71.7897L67.7522 73.2616L69.1921 71.7897C69.5047 71.4764 69.7699 71.3149 69.9878 71.3149C70.2057 71.3149 70.4709 71.4764 70.7836 71.7897C71.0962 72.1031 71.2572 72.3785 71.2572 72.5969C71.2572 72.8153 71.0962 73.0907 70.7836 73.4041L69.3247 74.8759Z" fill="#A590DD"/>
</g>
</g>
</svg>
