<svg width="121" height="115" viewBox="0 0 121 115" fill="none" xmlns="http://www.w3.org/2000/svg">
<g id="Layer_1" clip-path="url(#clip0_9299_984)">
<g id="Group">
<path id="Vector" d="M49.2293 0.1875H22.1745C20.486 0.1875 19.1172 1.55946 19.1172 3.25187V30.3695C19.1172 32.0619 20.486 33.4338 22.1745 33.4338H49.2293C50.9177 33.4338 52.2865 32.0619 52.2865 30.3695V3.25187C52.2865 1.55946 50.9177 0.1875 49.2293 0.1875Z" fill="#262262"/>
<path id="Vector_2" d="M49.229 33.6269H22.1793C20.3875 33.6269 18.9297 32.1657 18.9297 30.3697V3.25716C18.9297 1.46116 20.3875 0 22.1793 0H49.229C51.0209 0 52.4786 1.46116 52.4786 3.25716V30.3697C52.4786 32.1657 51.0209 33.6269 49.229 33.6269ZM22.1742 0.380509C20.5899 0.380509 19.3043 1.66917 19.3043 3.25716V30.3697C19.3043 31.9577 20.5899 33.2463 22.1742 33.2463H49.224C50.8083 33.2463 52.094 31.9577 52.094 30.3697V3.25716C52.094 1.67424 50.8083 0.380509 49.224 0.380509H22.1742Z" fill="#A590DD"/>
</g>
<g id="Group_2">
<path id="Vector_3" d="M30.3035 40.8765H3.24867C1.56019 40.8765 0.191406 42.2484 0.191406 43.9408V71.0584C0.191406 72.7509 1.56019 74.1228 3.24867 74.1228H30.3035C31.992 74.1228 33.3607 72.7509 33.3607 71.0584V43.9408C33.3607 42.2484 31.992 40.8765 30.3035 40.8765Z" fill="#262262"/>
<path id="Vector_4" d="M30.2993 74.3158H3.24961C1.45777 74.3158 0 72.8547 0 71.0587V43.9461C0 42.1501 1.45777 40.689 3.24961 40.689H30.2993C32.0912 40.689 33.549 42.1501 33.549 43.9461V71.0587C33.549 72.8547 32.0912 74.3158 30.2993 74.3158ZM3.24961 41.0695C1.6653 41.0695 0.379628 42.3581 0.379628 43.9461V71.0587C0.379628 72.6467 1.6653 73.9353 3.24961 73.9353H30.2993C31.8837 73.9353 33.1693 72.6467 33.1693 71.0587V43.9461C33.1693 42.3632 31.8837 41.0695 30.2993 41.0695H3.24961Z" fill="#A590DD"/>
</g>
<g id="Group_3">
<path id="Vector_5" d="M49.2293 81.5659H22.1745C20.486 81.5659 19.1172 82.9379 19.1172 84.6303V111.748C19.1172 113.44 20.486 114.812 22.1745 114.812H49.2293C50.9177 114.812 52.2865 113.44 52.2865 111.748V84.6303C52.2865 82.9379 50.9177 81.5659 49.2293 81.5659Z" fill="#262262"/>
<path id="Vector_6" d="M49.229 115H22.1793C20.3875 115 18.9297 113.539 18.9297 111.743V84.6302C18.9297 82.8342 20.3875 81.373 22.1793 81.373H49.229C51.0209 81.373 52.4786 82.8342 52.4786 84.6302V111.743C52.4786 113.539 51.0209 115 49.229 115ZM22.1742 81.7536C20.5899 81.7536 19.3043 83.0422 19.3043 84.6302V111.743C19.3043 113.326 20.5899 114.619 22.1742 114.619H49.224C50.8083 114.619 52.094 113.331 52.094 111.743V84.6302C52.094 83.0422 50.8083 81.7536 49.224 81.7536H22.1742Z" fill="#A590DD"/>
</g>
<g id="Group_4">
<path id="Vector_7" d="M90.6926 74.123H117.747C119.436 74.123 120.805 72.7511 120.805 71.0587V43.9411C120.805 42.2487 119.436 40.8767 117.747 40.8767L90.6926 40.8767C89.0041 40.8767 87.6354 42.2487 87.6354 43.9411V71.0587C87.6354 72.7511 89.0041 74.123 90.6926 74.123Z" fill="#262262"/>
<path id="Vector_8" d="M117.749 74.3158H90.6988C88.907 74.3158 87.4492 72.8547 87.4492 71.0587V43.9461C87.4492 42.1501 88.907 40.689 90.6988 40.689H117.749C119.54 40.689 120.998 42.1501 120.998 43.9461V71.0587C120.998 72.8547 119.54 74.3158 117.749 74.3158ZM90.6938 41.0695C89.1095 41.0695 87.8238 42.3581 87.8238 43.9461V71.0587C87.8238 72.6467 89.1095 73.9353 90.6938 73.9353H117.744C119.328 73.9353 120.613 72.6467 120.613 71.0587V43.9461C120.613 42.3632 119.328 41.0695 117.744 41.0695H90.6938Z" fill="#A590DD"/>
</g>
<g id="Group_5">
<path id="Vector_9" d="M71.7629 33.439L98.8177 33.439C100.506 33.439 101.875 32.067 101.875 30.3746V3.25698C101.875 1.56458 100.506 0.192616 98.8177 0.192616L71.7629 0.192616C70.0744 0.192616 68.7057 1.56458 68.7057 3.25698V30.3746C68.7057 32.067 70.0744 33.439 71.7629 33.439Z" fill="#262262"/>
<path id="Vector_10" d="M98.8189 33.6269H71.7691C69.9773 33.6269 68.5195 32.1657 68.5195 30.3697V3.25716C68.5195 1.46116 69.9773 0 71.7691 0H98.8189C100.611 0 102.068 1.46116 102.068 3.25716V30.3697C102.068 32.1657 100.611 33.6269 98.8189 33.6269ZM71.7691 0.380509C70.1848 0.380509 68.8992 1.66917 68.8992 3.25716V30.3697C68.8992 31.9577 70.1848 33.2463 71.7691 33.2463H98.8189C100.403 33.2463 101.689 31.9577 101.689 30.3697V3.25716C101.689 1.67424 100.403 0.380509 98.8189 0.380509H71.7691Z" fill="#A590DD"/>
</g>
<g id="Group_6">
<g id="Group_7">
<path id="Vector_11" d="M105.948 62.7075C108.45 62.7075 110.478 60.6745 110.478 58.1667C110.478 55.6589 108.45 53.626 105.948 53.626C103.446 53.626 101.418 55.6589 101.418 58.1667C101.418 60.6745 103.446 62.7075 105.948 62.7075Z" fill="#262262"/>
<path id="Vector_12" d="M105.96 62.9613C105.772 62.9613 105.585 62.9511 105.398 62.9308C104.127 62.7837 102.993 62.1495 102.199 61.145C101.404 60.1404 101.05 58.8873 101.197 57.6139C101.343 56.3404 101.976 55.204 102.978 54.4074C105.043 52.7687 108.06 53.1188 109.695 55.1938C111.33 57.2689 110.981 60.2876 108.911 61.9263C108.055 62.6011 107.023 62.9613 105.955 62.9613H105.96ZM105.949 53.8798C105.018 53.8798 104.087 54.1791 103.302 54.8032C102.406 55.5135 101.839 56.5332 101.708 57.6697C101.576 58.8061 101.895 59.9274 102.604 60.8254C103.312 61.7234 104.33 62.2916 105.464 62.4235C106.602 62.5605 107.716 62.2358 108.612 61.5255C110.459 60.0593 110.773 57.3602 109.31 55.5033C108.465 54.4379 107.215 53.8798 105.955 53.8798H105.949Z" fill="#A590DD"/>
</g>
<g id="Group_8">
<path id="Vector_13" d="M108.254 51.1782L107.328 53.729L107.804 53.9024L108.73 51.3517L108.254 51.1782Z" fill="#A590DD"/>
</g>
<g id="Group_9">
<path id="Vector_14" d="M101.543 58.6273L98.8555 58.9614L98.9178 59.4649L101.605 59.1308L101.543 58.6273Z" fill="#A590DD"/>
</g>
<g id="Group_10">
<path id="Vector_15" d="M108.914 61.6358L108.52 61.9536L110.216 64.0693L110.611 63.7514L108.914 61.6358Z" fill="#A590DD"/>
</g>
<g id="Group_11">
<path id="Vector_16" d="M111.737 67.7608C112.897 67.7608 113.838 66.8181 113.838 65.6553C113.838 64.4925 112.897 63.5498 111.737 63.5498C110.577 63.5498 109.637 64.4925 109.637 65.6553C109.637 66.8181 110.577 67.7608 111.737 67.7608Z" fill="#61BD73"/>
<path id="Vector_17" d="M111.737 68.0144C111.044 68.0144 110.35 67.71 109.89 67.1215C109.085 66.1017 109.257 64.6152 110.274 63.8035C111.292 62.9968 112.775 63.1693 113.58 64.189C114.384 65.2088 114.212 66.6953 113.195 67.5071C112.765 67.847 112.248 68.0144 111.737 68.0144ZM111.732 63.8035C111.332 63.8035 110.927 63.9354 110.588 64.2043C109.788 64.8384 109.652 66.0053 110.285 66.8069C110.917 67.6086 112.081 67.7455 112.881 67.1114C113.681 66.4772 113.818 65.3103 113.185 64.5087C112.82 64.047 112.279 63.8085 111.732 63.8085V63.8035Z" fill="#A590DD"/>
</g>
<g id="Group_12">
<path id="Vector_18" d="M109.284 51.4751C110.444 51.4751 111.385 50.5325 111.385 49.3696C111.385 48.2068 110.444 47.2642 109.284 47.2642C108.124 47.2642 107.184 48.2068 107.184 49.3696C107.184 50.5325 108.124 51.4751 109.284 51.4751Z" fill="#61BD73"/>
<path id="Vector_19" d="M109.288 51.7288C108.595 51.7288 107.901 51.4244 107.44 50.8359C106.636 49.8161 106.808 48.3296 107.825 47.5178C108.843 46.7111 110.326 46.8836 111.13 47.9034C111.935 48.9232 111.763 50.4097 110.746 51.2214C110.316 51.5614 109.799 51.7288 109.288 51.7288ZM109.283 47.5178C108.883 47.5178 108.478 47.6497 108.139 47.9186C107.339 48.5528 107.203 49.7197 107.835 50.5213C108.468 51.3229 109.632 51.4599 110.432 50.8257C111.232 50.1915 111.368 49.0246 110.736 48.223C110.371 47.7613 109.83 47.5229 109.283 47.5229V47.5178Z" fill="#A590DD"/>
</g>
<g id="Group_13">
<path id="Vector_20" d="M96.7139 61.6324C97.874 61.6324 98.8145 60.6897 98.8145 59.5269C98.8145 58.364 97.874 57.4214 96.7139 57.4214C95.5538 57.4214 94.6133 58.364 94.6133 59.5269C94.6133 60.6897 95.5538 61.6324 96.7139 61.6324Z" fill="#61BD73"/>
<path id="Vector_21" d="M96.7151 61.8858C96.0217 61.8858 95.3282 61.5814 94.8676 60.9929C94.4778 60.5008 94.3007 59.8818 94.3766 59.2578C94.4525 58.6337 94.7613 58.0706 95.2523 57.6799C96.2697 56.8733 97.7528 57.0457 98.5576 58.0655C99.3624 59.0853 99.1903 60.5718 98.1729 61.3785C97.7426 61.7184 97.2263 61.8858 96.7151 61.8858ZM96.71 57.6749C96.3102 57.6749 95.9052 57.8068 95.5661 58.0757C95.1814 58.3801 94.9334 58.8215 94.8777 59.3136C94.822 59.8057 94.9587 60.2877 95.2624 60.6783C95.8951 61.4799 97.0593 61.6169 97.8591 60.9827C98.2437 60.6783 98.4918 60.237 98.5474 59.7448C98.6031 59.2527 98.4665 58.7707 98.1627 58.3801C97.7983 57.9184 97.2567 57.6799 96.71 57.6799V57.6749Z" fill="#A590DD"/>
</g>
</g>
<g id="Group_14">
<g id="Group_15">
<path id="Vector_22" d="M92.2385 9.43115H83.5273V18.1626H92.2385V9.43115Z" fill="#262262"/>
<path id="Vector_23" d="M92.4307 18.3556H83.3398V9.24365H92.4307V18.3556ZM83.7195 17.9751H92.051V9.62416H83.7195V17.9751Z" fill="#A590DD"/>
</g>
<path id="Vector_24" d="M86.8674 15.6768H78.1562V24.4082H86.8674V15.6768Z" fill="#61BD73"/>
</g>
<g id="Group_16">
<path id="Vector_25" d="M25.3327 57.8526H5.45038C5.24791 57.8526 5.08594 57.6903 5.08594 57.4874C5.08594 57.2844 5.24791 57.1221 5.45038 57.1221H25.3277C25.5302 57.1221 25.6921 57.2844 25.6921 57.4874C25.6921 57.6903 25.5302 57.8526 25.3277 57.8526H25.3327Z" fill="#A590DD"/>
<g id="Group_17">
<path id="Vector_26" d="M6.56396 59.3288C5.55162 59.3288 4.72656 58.5019 4.72656 57.4872C4.72656 56.4725 5.55162 55.6455 6.56396 55.6455C7.5763 55.6455 8.40136 56.4725 8.40136 57.4872C8.40136 58.5019 7.5763 59.3288 6.56396 59.3288Z" fill="#262262"/>
<path id="Vector_27" d="M6.56512 56.0109C7.37499 56.0109 8.03808 56.6704 8.03808 57.4872C8.03808 58.3041 7.38006 58.9636 6.56512 58.9636C5.75019 58.9636 5.09217 58.3041 5.09217 57.4872C5.09217 56.6704 5.75019 56.0109 6.56512 56.0109ZM6.56512 55.2803C5.35031 55.2803 4.36328 56.2696 4.36328 57.4872C4.36328 58.7049 5.35031 59.6942 6.56512 59.6942C7.77993 59.6942 8.76696 58.7049 8.76696 57.4872C8.76696 56.2696 7.77993 55.2803 6.56512 55.2803Z" fill="#A590DD"/>
</g>
<g id="Group_18">
<path id="Vector_28" d="M16.7749 59.3288C15.7626 59.3288 14.9375 58.5019 14.9375 57.4872C14.9375 56.4725 15.7626 55.6455 16.7749 55.6455C17.7872 55.6455 18.6123 56.4725 18.6123 57.4872C18.6123 58.5019 17.7872 59.3288 16.7749 59.3288Z" fill="#61BD73"/>
<path id="Vector_29" d="M16.7761 56.0109C17.5859 56.0109 18.249 56.6704 18.249 57.4872C18.249 58.3041 17.591 58.9636 16.7761 58.9636C15.9611 58.9636 15.3031 58.3041 15.3031 57.4872C15.3031 56.6704 15.9611 56.0109 16.7761 56.0109ZM16.7761 55.2803C15.5612 55.2803 14.5742 56.2696 14.5742 57.4872C14.5742 58.7049 15.5612 59.6942 16.7761 59.6942C17.9909 59.6942 18.9779 58.7049 18.9779 57.4872C18.9779 56.2696 17.9909 55.2803 16.7761 55.2803Z" fill="#A590DD"/>
</g>
<g id="Group_19">
<path id="Vector_30" d="M26.9819 59.3288C25.9696 59.3288 25.1445 58.5019 25.1445 57.4872C25.1445 56.4725 25.9696 55.6455 26.9819 55.6455C27.9943 55.6455 28.8193 56.4725 28.8193 57.4872C28.8193 58.5019 27.9943 59.3288 26.9819 59.3288Z" fill="#262262"/>
<path id="Vector_31" d="M26.9831 56.0109C27.793 56.0109 28.456 56.6704 28.456 57.4872C28.456 58.3041 27.798 58.9636 26.9831 58.9636C26.1682 58.9636 25.5101 58.3041 25.5101 57.4872C25.5101 56.6704 26.1682 56.0109 26.9831 56.0109ZM26.9831 55.2803C25.7683 55.2803 24.7812 56.2696 24.7812 57.4872C24.7812 58.7049 25.7683 59.6942 26.9831 59.6942C28.1979 59.6942 29.1849 58.7049 29.1849 57.4872C29.1849 56.2696 28.1979 55.2803 26.9831 55.2803Z" fill="#A590DD"/>
</g>
</g>
<g id="Group_20">
<path id="Vector_32" d="M42.61 24.3322H41.1016V9.10173L42.61 9.07129V24.3322Z" fill="#61BD73"/>
<path id="Vector_33" d="M42.6112 24.0991V25.337H29.8507L29.8203 24.0991H42.6112Z" fill="#61BD73"/>
<path id="Vector_34" d="M41.4157 24.3477H28.7969V8.29528L41.4309 8.25977L41.4157 24.3477ZM29.303 23.8403H40.9095L40.9247 8.76711L29.303 8.80263V23.8403Z" fill="#61BD73"/>
<path id="Vector_35" d="M38.6482 12.1869H31.415C31.3087 12.1869 31.2227 12.1006 31.2227 11.9941C31.2227 11.8875 31.3087 11.8013 31.415 11.8013H38.6482C38.7545 11.8013 38.8405 11.8875 38.8405 11.9941C38.8405 12.1006 38.7545 12.1869 38.6482 12.1869Z" fill="#A590DD"/>
<path id="Vector_36" d="M38.7533 14.556H31.4189C31.3126 14.556 31.2266 14.4697 31.2266 14.3632C31.2266 14.2567 31.3126 14.1704 31.4189 14.1704H38.7533C38.8596 14.1704 38.9457 14.2567 38.9457 14.3632C38.9457 14.4697 38.8596 14.556 38.7533 14.556Z" fill="#A590DD"/>
<path id="Vector_37" d="M35.8428 16.9305H31.4189C31.3126 16.9305 31.2266 16.8443 31.2266 16.7377C31.2266 16.6312 31.3126 16.5449 31.4189 16.5449H35.8428C35.9491 16.5449 36.0352 16.6312 36.0352 16.7377C36.0352 16.8443 35.9491 16.9305 35.8428 16.9305Z" fill="#A590DD"/>
</g>
<g id="Group_21">
<g id="Group_22">
<path id="Vector_38" d="M71.7629 114.807H98.8177C100.506 114.807 101.875 113.435 101.875 111.743V84.6252C101.875 82.9327 100.506 81.5608 98.8177 81.5608H71.7629C70.0744 81.5608 68.7057 82.9327 68.7057 84.6252V111.743C68.7057 113.435 70.0744 114.807 71.7629 114.807Z" fill="#262262"/>
<path id="Vector_39" d="M98.8189 115H71.7691C69.9773 115 68.5195 113.539 68.5195 111.743V84.6302C68.5195 82.8342 69.9773 81.373 71.7691 81.373H98.8189C100.611 81.373 102.068 82.8342 102.068 84.6302V111.743C102.068 113.539 100.611 115 98.8189 115ZM71.7691 81.7536C70.1848 81.7536 68.8992 83.0422 68.8992 84.6302V111.743C68.8992 113.326 70.1848 114.619 71.7691 114.619H98.8189C100.403 114.619 101.689 113.331 101.689 111.743V84.6302C101.689 83.0422 100.403 81.7536 98.8189 81.7536H71.7691Z" fill="#A590DD"/>
</g>
<g id="Group_23">
<path id="Vector_40" d="M84.1143 107.161C83.8157 107.161 83.5727 106.923 83.5677 106.624L83.5525 105.68C82.7932 105.502 82.0694 105.218 81.3962 104.822L80.7584 105.492C80.5509 105.71 80.2016 105.715 79.984 105.507L78.1112 103.711C78.0049 103.61 77.9441 103.473 77.9441 103.326C77.9441 103.179 77.9947 103.042 78.096 102.935L78.754 102.245C78.344 101.591 78.0403 100.885 77.8429 100.14H76.9217C76.618 100.14 76.375 99.891 76.375 99.5866V96.989C76.3801 96.6897 76.6281 96.4411 76.9267 96.4411H77.767C77.9391 95.6699 78.2276 94.9292 78.6325 94.2443L78.0251 93.6101C77.8176 93.3919 77.8226 93.0469 78.0403 92.8339L79.903 91.0277C80.0093 90.9262 80.151 90.8704 80.2928 90.8755C80.4395 90.8755 80.5762 90.9364 80.6774 91.0429L81.2089 91.5909C81.9226 91.1393 82.7021 90.8146 83.5221 90.6218L83.5069 89.7898C83.5069 89.4854 83.7448 89.2368 84.0435 89.2317L86.6351 89.186C86.954 89.186 87.1868 89.4245 87.1919 89.7238L87.207 90.6573C87.9815 90.8552 88.7154 91.1748 89.3937 91.601L89.991 90.982C90.0922 90.8755 90.2289 90.8197 90.3757 90.8146C90.5275 90.8248 90.6591 90.8654 90.7654 90.9668L92.6281 92.773C92.7344 92.8744 92.7901 93.0114 92.7952 93.1586C92.8002 93.3057 92.7445 93.4427 92.6433 93.5492L91.96 94.2595C92.375 94.9748 92.6737 95.746 92.8357 96.5578H93.6708C93.9695 96.5578 94.2175 96.8013 94.2175 97.1057V99.7033C94.2226 99.8504 94.1669 99.9874 94.0656 100.094C93.9644 100.195 93.8227 100.256 93.681 100.256H92.7091C92.5117 100.956 92.2181 101.621 91.8334 102.245L92.4611 102.9C92.6686 103.118 92.6636 103.468 92.4459 103.676L90.5731 105.472C90.4668 105.573 90.3301 105.629 90.1833 105.624C90.0365 105.624 89.8999 105.563 89.7986 105.457L89.1912 104.817C88.5838 105.178 87.9309 105.446 87.2475 105.624L87.2627 106.558C87.2678 106.862 87.0248 107.111 86.7262 107.116L84.1346 107.161H84.1245H84.1143ZM81.3 104.219L81.4823 104.305C82.2111 104.756 83.0008 105.071 83.836 105.244L84.0182 105.279L84.0283 105.467L84.0485 106.613C84.0485 106.649 84.0789 106.674 84.1143 106.674L86.7059 106.629C86.7414 106.629 86.7717 106.598 86.7667 106.563L86.7464 105.269L86.9388 105.198C87.7031 105.02 88.4269 104.716 89.0951 104.305L89.2621 104.203L90.1428 105.122H90.2339L92.1068 103.326C92.1321 103.3 92.1321 103.26 92.1068 103.234L91.2159 102.301L91.3222 102.139C91.7626 101.464 92.0916 100.728 92.289 99.9519L92.3345 99.7743H93.6759L93.7417 99.7033V97.1057C93.7366 97.0702 93.7063 97.0397 93.6708 97.0397H92.4307L92.3953 96.8419C92.2384 95.9591 91.9195 95.1169 91.4487 94.3508L91.3526 94.1935L92.2941 93.2144V93.123L90.4263 91.3169C90.406 91.2966 90.3554 91.2966 90.3352 91.3169L89.4595 92.225L89.2925 92.1134C88.5636 91.6264 87.7638 91.2763 86.9135 91.0835L86.7312 91.0429L86.711 89.734C86.711 89.6985 86.6806 89.6731 86.6452 89.6731L84.0536 89.7187C84.0182 89.7187 83.9878 89.7492 83.9929 89.7847L84.0131 91.0176L83.8157 91.0581C82.9704 91.2306 82.1757 91.5553 81.4468 92.017L81.1381 92.22L80.3282 91.3828C80.3282 91.3828 80.2573 91.3575 80.2371 91.3828L78.3744 93.189C78.3744 93.189 78.3491 93.2549 78.3744 93.2803L79.245 94.1834L79.1488 94.3407C78.6933 95.0814 78.3744 95.8881 78.2073 96.7404L78.1668 96.9383H76.9267C76.8913 96.9383 76.8609 96.9636 76.8609 96.9992V99.5968C76.8559 99.6323 76.8862 99.6627 76.9217 99.6627H78.2073L78.263 99.8504C78.4604 100.667 78.7945 101.444 79.2602 102.149L79.3665 102.311L78.4452 103.28C78.4452 103.28 78.4199 103.346 78.4452 103.371L80.3181 105.167C80.3181 105.167 80.3889 105.188 80.4092 105.167L81.3051 104.229L81.3 104.219Z" fill="#A590DD"/>
<path id="Vector_41" d="M85.2922 101.672C87.2183 101.672 88.7797 100.107 88.7797 98.1763C88.7797 96.2457 87.2183 94.6807 85.2922 94.6807C83.3661 94.6807 81.8047 96.2457 81.8047 98.1763C81.8047 100.107 83.3661 101.672 85.2922 101.672Z" fill="#61BD73"/>
</g>
</g>
<g id="Group_24">
<path id="Vector_42" d="M31.263 103.448C28.5601 103.448 26.3633 101.246 26.3633 98.5368C26.3633 96.3248 27.8767 94.3664 29.9875 93.7931C29.9875 93.7373 29.9875 93.6815 29.9875 93.6206C29.9875 91.3375 31.84 89.4756 34.1229 89.4756C35.6363 89.4756 36.9979 90.2873 37.7319 91.6014C38.1722 91.4999 38.6227 91.4492 39.0783 91.4492C42.3734 91.4492 45.0511 94.133 45.0511 97.4358C45.0511 100.739 42.3734 103.423 39.0783 103.423C38.2431 103.423 36.6132 103.423 35.0188 103.433C33.4902 103.433 31.997 103.443 31.2681 103.443L31.263 103.448ZM34.1178 89.988C32.1184 89.988 30.4886 91.6166 30.4886 93.6257C30.4886 93.7424 30.4936 93.854 30.5038 93.9656L30.524 94.1888L30.3063 94.2396C28.312 94.681 26.8644 96.4922 26.8644 98.5418C26.8644 100.972 28.8385 102.946 31.2579 102.946C31.9868 102.946 33.48 102.946 35.0036 102.935C36.598 102.935 38.233 102.925 39.0631 102.925C42.0799 102.925 44.5297 100.465 44.5297 97.446C44.5297 94.4273 42.0748 91.9667 39.0631 91.9667C38.5873 91.9667 38.1115 92.0275 37.6509 92.1544L37.4484 92.2102L37.3573 92.0225C36.7398 90.7744 35.4946 89.9982 34.1077 89.9982L34.1178 89.988Z" fill="#A590DD"/>
<path id="Vector_43" d="M40.8753 98.1611H32.1641V106.893H40.8753V98.1611Z" fill="#61BD73"/>
</g>
<g id="Group_25">
<path id="Vector_44" d="M52.5392 17.0062H52.2861C52.1798 17.0062 52.0938 16.9199 52.0938 16.8134C52.0938 16.7069 52.1798 16.6206 52.2861 16.6206H52.5392C52.6455 16.6206 52.7315 16.7069 52.7315 16.8134C52.7315 16.9199 52.6455 17.0062 52.5392 17.0062Z" fill="#61BD73"/>
<path id="Vector_45" d="M66.5872 17.0062H66.1216C66.0153 17.0062 65.9292 16.9199 65.9292 16.8134C65.9292 16.7069 66.0153 16.6206 66.1216 16.6206H66.5872C66.6935 16.6206 66.7796 16.7069 66.7796 16.8134C66.7796 16.9199 66.6935 17.0062 66.5872 17.0062ZM64.2437 17.0062H63.778C63.6717 17.0062 63.5857 16.9199 63.5857 16.8134C63.5857 16.7069 63.6717 16.6206 63.778 16.6206H64.2437C64.35 16.6206 64.436 16.7069 64.436 16.8134C64.436 16.9199 64.35 17.0062 64.2437 17.0062ZM61.9052 17.0062H61.4395C61.3332 17.0062 61.2471 16.9199 61.2471 16.8134C61.2471 16.7069 61.3332 16.6206 61.4395 16.6206H61.9052C62.0115 16.6206 62.0975 16.7069 62.0975 16.8134C62.0975 16.9199 62.0115 17.0062 61.9052 17.0062ZM59.5616 17.0062H59.0959C58.9896 17.0062 58.9036 16.9199 58.9036 16.8134C58.9036 16.7069 58.9896 16.6206 59.0959 16.6206H59.5616C59.6679 16.6206 59.7539 16.7069 59.7539 16.8134C59.7539 16.9199 59.6679 17.0062 59.5616 17.0062ZM57.2231 17.0062H56.7574C56.6511 17.0062 56.5651 16.9199 56.5651 16.8134C56.5651 16.7069 56.6511 16.6206 56.7574 16.6206H57.2231C57.3294 16.6206 57.4154 16.7069 57.4154 16.8134C57.4154 16.9199 57.3294 17.0062 57.2231 17.0062ZM54.8846 17.0062H54.4189C54.3126 17.0062 54.2266 16.9199 54.2266 16.8134C54.2266 16.7069 54.3126 16.6206 54.4189 16.6206H54.8846C54.9909 16.6206 55.0769 16.7069 55.0769 16.8134C55.0769 16.9199 54.9909 17.0062 54.8846 17.0062Z" fill="#61BD73"/>
<path id="Vector_46" d="M68.7111 17.0062H68.458C68.3517 17.0062 68.2656 16.9199 68.2656 16.8134C68.2656 16.7069 68.3517 16.6206 68.458 16.6206H68.7111C68.8174 16.6206 68.9034 16.7069 68.9034 16.8134C68.9034 16.9199 68.8174 17.0062 68.7111 17.0062Z" fill="#61BD73"/>
</g>
<g id="Group_26">
<path id="Vector_47" d="M33.6134 56.4828H33.3603C33.254 56.4828 33.168 56.3965 33.168 56.29C33.168 56.1834 33.254 56.0972 33.3603 56.0972H33.6134C33.7197 56.0972 33.8057 56.1834 33.8057 56.29C33.8057 56.3965 33.7197 56.4828 33.6134 56.4828Z" fill="#61BD73"/>
<path id="Vector_48" d="M85.3118 56.4828H84.7955C84.6892 56.4828 84.6031 56.3965 84.6031 56.29C84.6031 56.1834 84.6892 56.0972 84.7955 56.0972H85.3118C85.4181 56.0972 85.5041 56.1834 85.5041 56.29C85.5041 56.3965 85.4181 56.4828 85.3118 56.4828ZM82.7303 56.4828H82.214C82.1077 56.4828 82.0217 56.3965 82.0217 56.29C82.0217 56.1834 82.1077 56.0972 82.214 56.0972H82.7303C82.8366 56.0972 82.9226 56.1834 82.9226 56.29C82.9226 56.3965 82.8366 56.4828 82.7303 56.4828ZM80.1438 56.4828H79.6275C79.5212 56.4828 79.4351 56.3965 79.4351 56.29C79.4351 56.1834 79.5212 56.0972 79.6275 56.0972H80.1438C80.2501 56.0972 80.3361 56.1834 80.3361 56.29C80.3361 56.3965 80.2501 56.4828 80.1438 56.4828ZM77.5572 56.4828H77.041C76.9347 56.4828 76.8486 56.3965 76.8486 56.29C76.8486 56.1834 76.9347 56.0972 77.041 56.0972H77.5572C77.6635 56.0972 77.7496 56.1834 77.7496 56.29C77.7496 56.3965 77.6635 56.4828 77.5572 56.4828ZM74.9707 56.4828H74.4544C74.3481 56.4828 74.2621 56.3965 74.2621 56.29C74.2621 56.1834 74.3481 56.0972 74.4544 56.0972H74.9707C75.077 56.0972 75.1631 56.1834 75.1631 56.29C75.1631 56.3965 75.077 56.4828 74.9707 56.4828ZM72.3892 56.4828H71.873C71.7667 56.4828 71.6806 56.3965 71.6806 56.29C71.6806 56.1834 71.7667 56.0972 71.873 56.0972H72.3892C72.4955 56.0972 72.5816 56.1834 72.5816 56.29C72.5816 56.3965 72.4955 56.4828 72.3892 56.4828ZM69.8027 56.4828H69.2864C69.1801 56.4828 69.0941 56.3965 69.0941 56.29C69.0941 56.1834 69.1801 56.0972 69.2864 56.0972H69.8027C69.909 56.0972 69.9951 56.1834 69.9951 56.29C69.9951 56.3965 69.909 56.4828 69.8027 56.4828ZM67.2162 56.4828H66.6999C66.5936 56.4828 66.5075 56.3965 66.5075 56.29C66.5075 56.1834 66.5936 56.0972 66.6999 56.0972H67.2162C67.3225 56.0972 67.4085 56.1834 67.4085 56.29C67.4085 56.3965 67.3225 56.4828 67.2162 56.4828ZM64.6347 56.4828H64.1184C64.0121 56.4828 63.9261 56.3965 63.9261 56.29C63.9261 56.1834 64.0121 56.0972 64.1184 56.0972H64.6347C64.741 56.0972 64.8271 56.1834 64.8271 56.29C64.8271 56.3965 64.741 56.4828 64.6347 56.4828ZM62.0482 56.4828H61.5319C61.4256 56.4828 61.3396 56.3965 61.3396 56.29C61.3396 56.1834 61.4256 56.0972 61.5319 56.0972H62.0482C62.1545 56.0972 62.2405 56.1834 62.2405 56.29C62.2405 56.3965 62.1545 56.4828 62.0482 56.4828ZM59.4617 56.4828H58.9454C58.8391 56.4828 58.753 56.3965 58.753 56.29C58.753 56.1834 58.8391 56.0972 58.9454 56.0972H59.4617C59.568 56.0972 59.654 56.1834 59.654 56.29C59.654 56.3965 59.568 56.4828 59.4617 56.4828ZM56.8751 56.4828H56.3588C56.2525 56.4828 56.1665 56.3965 56.1665 56.29C56.1665 56.1834 56.2525 56.0972 56.3588 56.0972H56.8751C56.9814 56.0972 57.0675 56.1834 57.0675 56.29C57.0675 56.3965 56.9814 56.4828 56.8751 56.4828ZM54.2937 56.4828H53.7774C53.6711 56.4828 53.585 56.3965 53.585 56.29C53.585 56.1834 53.6711 56.0972 53.7774 56.0972H54.2937C54.4 56.0972 54.486 56.1834 54.486 56.29C54.486 56.3965 54.4 56.4828 54.2937 56.4828ZM51.7071 56.4828H51.1908C51.0845 56.4828 50.9985 56.3965 50.9985 56.29C50.9985 56.1834 51.0845 56.0972 51.1908 56.0972H51.7071C51.8134 56.0972 51.8995 56.1834 51.8995 56.29C51.8995 56.3965 51.8134 56.4828 51.7071 56.4828ZM49.1206 56.4828H48.6043C48.498 56.4828 48.412 56.3965 48.412 56.29C48.412 56.1834 48.498 56.0972 48.6043 56.0972H49.1206C49.2269 56.0972 49.3129 56.1834 49.3129 56.29C49.3129 56.3965 49.2269 56.4828 49.1206 56.4828ZM46.5341 56.4828H46.0178C45.9115 56.4828 45.8254 56.3965 45.8254 56.29C45.8254 56.1834 45.9115 56.0972 46.0178 56.0972H46.5341C46.6404 56.0972 46.7264 56.1834 46.7264 56.29C46.7264 56.3965 46.6404 56.4828 46.5341 56.4828ZM43.9526 56.4828H43.4363C43.33 56.4828 43.244 56.3965 43.244 56.29C43.244 56.1834 43.33 56.0972 43.4363 56.0972H43.9526C44.0589 56.0972 44.1449 56.1834 44.1449 56.29C44.1449 56.3965 44.0589 56.4828 43.9526 56.4828ZM41.3661 56.4828H40.8498C40.7435 56.4828 40.6574 56.3965 40.6574 56.29C40.6574 56.1834 40.7435 56.0972 40.8498 56.0972H41.3661C41.4724 56.0972 41.5584 56.1834 41.5584 56.29C41.5584 56.3965 41.4724 56.4828 41.3661 56.4828ZM38.7795 56.4828H38.2632C38.157 56.4828 38.0709 56.3965 38.0709 56.29C38.0709 56.1834 38.157 56.0972 38.2632 56.0972H38.7795C38.8858 56.0972 38.9719 56.1834 38.9719 56.29C38.9719 56.3965 38.8858 56.4828 38.7795 56.4828ZM36.193 56.4828H35.6767C35.5704 56.4828 35.4844 56.3965 35.4844 56.29C35.4844 56.1834 35.5704 56.0972 35.6767 56.0972H36.193C36.2993 56.0972 36.3854 56.1834 36.3854 56.29C36.3854 56.3965 36.2993 56.4828 36.193 56.4828Z" fill="#61BD73"/>
<path id="Vector_49" d="M87.6368 56.4828H87.3838C87.2775 56.4828 87.1914 56.3965 87.1914 56.29C87.1914 56.1834 87.2775 56.0972 87.3838 56.0972H87.6368C87.7431 56.0972 87.8292 56.1834 87.8292 56.29C87.8292 56.3965 87.7431 56.4828 87.6368 56.4828Z" fill="#61BD73"/>
</g>
<g id="Group_27">
<path id="Vector_50" d="M52.5392 98.3792H52.2861C52.1798 98.3792 52.0938 98.293 52.0938 98.1864C52.0938 98.0799 52.1798 97.9937 52.2861 97.9937H52.5392C52.6455 97.9937 52.7315 98.0799 52.7315 98.1864C52.7315 98.293 52.6455 98.3792 52.5392 98.3792Z" fill="#61BD73"/>
<path id="Vector_51" d="M66.5872 98.3792H66.1216C66.0153 98.3792 65.9292 98.293 65.9292 98.1864C65.9292 98.0799 66.0153 97.9937 66.1216 97.9937H66.5872C66.6935 97.9937 66.7796 98.0799 66.7796 98.1864C66.7796 98.293 66.6935 98.3792 66.5872 98.3792ZM64.2437 98.3792H63.778C63.6717 98.3792 63.5857 98.293 63.5857 98.1864C63.5857 98.0799 63.6717 97.9937 63.778 97.9937H64.2437C64.35 97.9937 64.436 98.0799 64.436 98.1864C64.436 98.293 64.35 98.3792 64.2437 98.3792ZM61.9052 98.3792H61.4395C61.3332 98.3792 61.2471 98.293 61.2471 98.1864C61.2471 98.0799 61.3332 97.9937 61.4395 97.9937H61.9052C62.0115 97.9937 62.0975 98.0799 62.0975 98.1864C62.0975 98.293 62.0115 98.3792 61.9052 98.3792ZM59.5616 98.3792H59.0959C58.9896 98.3792 58.9036 98.293 58.9036 98.1864C58.9036 98.0799 58.9896 97.9937 59.0959 97.9937H59.5616C59.6679 97.9937 59.7539 98.0799 59.7539 98.1864C59.7539 98.293 59.6679 98.3792 59.5616 98.3792ZM57.2231 98.3792H56.7574C56.6511 98.3792 56.5651 98.293 56.5651 98.1864C56.5651 98.0799 56.6511 97.9937 56.7574 97.9937H57.2231C57.3294 97.9937 57.4154 98.0799 57.4154 98.1864C57.4154 98.293 57.3294 98.3792 57.2231 98.3792ZM54.8846 98.3792H54.4189C54.3126 98.3792 54.2266 98.293 54.2266 98.1864C54.2266 98.0799 54.3126 97.9937 54.4189 97.9937H54.8846C54.9909 97.9937 55.0769 98.0799 55.0769 98.1864C55.0769 98.293 54.9909 98.3792 54.8846 98.3792Z" fill="#61BD73"/>
<path id="Vector_52" d="M68.7111 98.3792H68.458C68.3517 98.3792 68.2656 98.293 68.2656 98.1864C68.2656 98.0799 68.3517 97.9937 68.458 97.9937H68.7111C68.8174 97.9937 68.9034 98.0799 68.9034 98.1864C68.9034 98.293 68.8174 98.3792 68.7111 98.3792Z" fill="#61BD73"/>
</g>
<path id="Vector_53" d="M60.9463 97.1008C60.84 97.1008 60.7539 97.0146 60.7539 96.908V96.4007C60.7539 96.2941 60.84 96.2079 60.9463 96.2079C61.0525 96.2079 61.1386 96.2941 61.1386 96.4007V96.908C61.1386 97.0146 61.0525 97.1008 60.9463 97.1008ZM60.9463 94.5641C60.84 94.5641 60.7539 94.4778 60.7539 94.3713V93.8639C60.7539 93.7574 60.84 93.6712 60.9463 93.6712C61.0525 93.6712 61.1386 93.7574 61.1386 93.8639V94.3713C61.1386 94.4778 61.0525 94.5641 60.9463 94.5641ZM60.9463 92.0274C60.84 92.0274 60.7539 91.9411 60.7539 91.8346V91.3272C60.7539 91.2207 60.84 91.1344 60.9463 91.1344C61.0525 91.1344 61.1386 91.2207 61.1386 91.3272V91.8346C61.1386 91.9411 61.0525 92.0274 60.9463 92.0274ZM60.9463 89.4906C60.84 89.4906 60.7539 89.4044 60.7539 89.2978V88.7905C60.7539 88.684 60.84 88.5977 60.9463 88.5977C61.0525 88.5977 61.1386 88.684 61.1386 88.7905V89.2978C61.1386 89.4044 61.0525 89.4906 60.9463 89.4906ZM60.9463 86.9539C60.84 86.9539 60.7539 86.8677 60.7539 86.7611V86.2538C60.7539 86.1472 60.84 86.061 60.9463 86.061C61.0525 86.061 61.1386 86.1472 61.1386 86.2538V86.7611C61.1386 86.8677 61.0525 86.9539 60.9463 86.9539ZM60.9463 84.4172C60.84 84.4172 60.7539 84.3309 60.7539 84.2244V83.717C60.7539 83.6105 60.84 83.5243 60.9463 83.5243C61.0525 83.5243 61.1386 83.6105 61.1386 83.717V84.2244C61.1386 84.3309 61.0525 84.4172 60.9463 84.4172ZM60.9463 81.8804C60.84 81.8804 60.7539 81.7942 60.7539 81.6877V81.1803C60.7539 81.0738 60.84 80.9875 60.9463 80.9875C61.0525 80.9875 61.1386 81.0738 61.1386 81.1803V81.6877C61.1386 81.7942 61.0525 81.8804 60.9463 81.8804ZM60.9463 79.3437C60.84 79.3437 60.7539 79.2575 60.7539 79.1509V78.6436C60.7539 78.537 60.84 78.4508 60.9463 78.4508C61.0525 78.4508 61.1386 78.537 61.1386 78.6436V79.1509C61.1386 79.2575 61.0525 79.3437 60.9463 79.3437ZM60.9463 76.807C60.84 76.807 60.7539 76.7207 60.7539 76.6142V76.1069C60.7539 76.0003 60.84 75.9141 60.9463 75.9141C61.0525 75.9141 61.1386 76.0003 61.1386 76.1069V76.6142C61.1386 76.7207 61.0525 76.807 60.9463 76.807ZM60.9463 74.2703C60.84 74.2703 60.7539 74.184 60.7539 74.0775V73.5701C60.7539 73.4636 60.84 73.3773 60.9463 73.3773C61.0525 73.3773 61.1386 73.4636 61.1386 73.5701V74.0775C61.1386 74.184 61.0525 74.2703 60.9463 74.2703ZM60.9463 71.7335C60.84 71.7335 60.7539 71.6473 60.7539 71.5407V71.0334C60.7539 70.9269 60.84 70.8406 60.9463 70.8406C61.0525 70.8406 61.1386 70.9269 61.1386 71.0334V71.5407C61.1386 71.6473 61.0525 71.7335 60.9463 71.7335ZM60.9463 69.1968C60.84 69.1968 60.7539 69.1106 60.7539 69.004V68.4967C60.7539 68.3901 60.84 68.3039 60.9463 68.3039C61.0525 68.3039 61.1386 68.3901 61.1386 68.4967V69.004C61.1386 69.1106 61.0525 69.1968 60.9463 69.1968ZM60.9463 66.6601C60.84 66.6601 60.7539 66.5738 60.7539 66.4673V65.9599C60.7539 65.8534 60.84 65.7672 60.9463 65.7672C61.0525 65.7672 61.1386 65.8534 61.1386 65.9599V66.4673C61.1386 66.5738 61.0525 66.6601 60.9463 66.6601ZM60.9463 64.1234C60.84 64.1234 60.7539 64.0371 60.7539 63.9306V63.4232C60.7539 63.3167 60.84 63.2304 60.9463 63.2304C61.0525 63.2304 61.1386 63.3167 61.1386 63.4232V63.9306C61.1386 64.0371 61.0525 64.1234 60.9463 64.1234ZM60.9463 61.5866C60.84 61.5866 60.7539 61.5004 60.7539 61.3938V60.8865C60.7539 60.78 60.84 60.6937 60.9463 60.6937C61.0525 60.6937 61.1386 60.78 61.1386 60.8865V61.3938C61.1386 61.5004 61.0525 61.5866 60.9463 61.5866ZM60.9463 59.0499C60.84 59.0499 60.7539 58.9637 60.7539 58.8571V58.3498C60.7539 58.2432 60.84 58.157 60.9463 58.157C61.0525 58.157 61.1386 58.2432 61.1386 58.3498V58.8571C61.1386 58.9637 61.0525 59.0499 60.9463 59.0499ZM60.9463 56.5132C60.84 56.5132 60.7539 56.4269 60.7539 56.3204V55.813C60.7539 55.7065 60.84 55.6202 60.9463 55.6202C61.0525 55.6202 61.1386 55.7065 61.1386 55.813V56.3204C61.1386 56.4269 61.0525 56.5132 60.9463 56.5132ZM60.9463 53.9764C60.84 53.9764 60.7539 53.8902 60.7539 53.7837V53.2763C60.7539 53.1698 60.84 53.0835 60.9463 53.0835C61.0525 53.0835 61.1386 53.1698 61.1386 53.2763V53.7837C61.1386 53.8902 61.0525 53.9764 60.9463 53.9764ZM60.9463 51.4397C60.84 51.4397 60.7539 51.3535 60.7539 51.2469V50.7396C60.7539 50.633 60.84 50.5468 60.9463 50.5468C61.0525 50.5468 61.1386 50.633 61.1386 50.7396V51.2469C61.1386 51.3535 61.0525 51.4397 60.9463 51.4397ZM60.9463 48.903C60.84 48.903 60.7539 48.8167 60.7539 48.7102V48.2029C60.7539 48.0963 60.84 48.0101 60.9463 48.0101C61.0525 48.0101 61.1386 48.0963 61.1386 48.2029V48.7102C61.1386 48.8167 61.0525 48.903 60.9463 48.903ZM60.9463 46.3663C60.84 46.3663 60.7539 46.28 60.7539 46.1735V45.6661C60.7539 45.5596 60.84 45.4733 60.9463 45.4733C61.0525 45.4733 61.1386 45.5596 61.1386 45.6661V46.1735C61.1386 46.28 61.0525 46.3663 60.9463 46.3663ZM60.9463 43.8295C60.84 43.8295 60.7539 43.7433 60.7539 43.6367V43.1294C60.7539 43.0229 60.84 42.9366 60.9463 42.9366C61.0525 42.9366 61.1386 43.0229 61.1386 43.1294V43.6367C61.1386 43.7433 61.0525 43.8295 60.9463 43.8295ZM60.9463 41.2928C60.84 41.2928 60.7539 41.2066 60.7539 41.1V40.5927C60.7539 40.4861 60.84 40.3999 60.9463 40.3999C61.0525 40.3999 61.1386 40.4861 61.1386 40.5927V41.1C61.1386 41.2066 61.0525 41.2928 60.9463 41.2928ZM60.9463 38.7561C60.84 38.7561 60.7539 38.6698 60.7539 38.5633V38.0559C60.7539 37.9494 60.84 37.8632 60.9463 37.8632C61.0525 37.8632 61.1386 37.9494 61.1386 38.0559V38.5633C61.1386 38.6698 61.0525 38.7561 60.9463 38.7561ZM60.9463 36.2194C60.84 36.2194 60.7539 36.1331 60.7539 36.0266V35.5192C60.7539 35.4127 60.84 35.3264 60.9463 35.3264C61.0525 35.3264 61.1386 35.4127 61.1386 35.5192V36.0266C61.1386 36.1331 61.0525 36.2194 60.9463 36.2194ZM60.9463 33.6826C60.84 33.6826 60.7539 33.5964 60.7539 33.4898V32.9825C60.7539 32.8759 60.84 32.7897 60.9463 32.7897C61.0525 32.7897 61.1386 32.8759 61.1386 32.9825V33.4898C61.1386 33.5964 61.0525 33.6826 60.9463 33.6826ZM60.9463 31.1459C60.84 31.1459 60.7539 31.0597 60.7539 30.9531V30.4458C60.7539 30.3392 60.84 30.253 60.9463 30.253C61.0525 30.253 61.1386 30.3392 61.1386 30.4458V30.9531C61.1386 31.0597 61.0525 31.1459 60.9463 31.1459ZM60.9463 28.6092C60.84 28.6092 60.7539 28.5229 60.7539 28.4164V27.909C60.7539 27.8025 60.84 27.7162 60.9463 27.7162C61.0525 27.7162 61.1386 27.8025 61.1386 27.909V28.4164C61.1386 28.5229 61.0525 28.6092 60.9463 28.6092ZM60.9463 26.0724C60.84 26.0724 60.7539 25.9862 60.7539 25.8797V25.3723C60.7539 25.2658 60.84 25.1795 60.9463 25.1795C61.0525 25.1795 61.1386 25.2658 61.1386 25.3723V25.8797C61.1386 25.9862 61.0525 26.0724 60.9463 26.0724ZM60.9463 23.5357C60.84 23.5357 60.7539 23.4495 60.7539 23.3429V22.8356C60.7539 22.729 60.84 22.6428 60.9463 22.6428C61.0525 22.6428 61.1386 22.729 61.1386 22.8356V23.3429C61.1386 23.4495 61.0525 23.5357 60.9463 23.5357ZM60.9463 20.999C60.84 20.999 60.7539 20.9127 60.7539 20.8062V20.2989C60.7539 20.1923 60.84 20.1061 60.9463 20.1061C61.0525 20.1061 61.1386 20.1923 61.1386 20.2989V20.8062C61.1386 20.9127 61.0525 20.999 60.9463 20.999ZM60.9463 18.4623C60.84 18.4623 60.7539 18.376 60.7539 18.2695V17.7621C60.7539 17.6556 60.84 17.5693 60.9463 17.5693C61.0525 17.5693 61.1386 17.6556 61.1386 17.7621V18.2695C61.1386 18.376 61.0525 18.4623 60.9463 18.4623Z" fill="#61BD73"/>
<g id="Group_28">
<g id="Group_29">
<path id="Vector_54" d="M76.3128 63.5753V48.5071C76.3128 47.6649 75.8673 46.8887 75.1385 46.4676L62.1198 38.9335C61.3959 38.5124 60.5 38.5124 59.7711 38.9335L46.7524 46.4676C46.0286 46.8887 45.5781 47.6649 45.5781 48.5071V63.5753C45.5781 64.4175 46.0236 65.1937 46.7524 65.6148L59.7711 73.1489C60.495 73.57 61.3909 73.57 62.1198 73.1489L75.1385 65.6148C75.8623 65.1937 76.3128 64.4175 76.3128 63.5753Z" fill="#262262"/>
<path id="Vector_55" d="M60.9464 73.6513C60.506 73.6513 60.0707 73.5397 59.6759 73.3114L46.6572 65.7773C45.8726 65.3257 45.3867 64.4785 45.3867 63.5754V48.5072C45.3867 47.5991 45.8726 46.7569 46.6572 46.3053L59.6759 38.7713C60.4605 38.3197 61.4323 38.3197 62.2118 38.7713L75.2305 46.3053C76.0151 46.7569 76.501 47.6042 76.501 48.5072V63.5754C76.501 64.4785 76.0151 65.3257 75.2305 65.7773L62.2118 73.3114C61.8221 73.5397 61.3817 73.6513 60.9413 73.6513H60.9464ZM60.9464 38.8119C60.5718 38.8119 60.2023 38.9083 59.8683 39.101L46.8496 46.6351C46.1865 47.0207 45.7714 47.7361 45.7714 48.5072V63.5754C45.7714 64.3466 46.1865 65.0619 46.8496 65.4475L59.8683 72.9816C60.5313 73.3672 61.3615 73.3672 62.0245 72.9816L75.0432 65.4475C75.7063 65.0619 76.1214 64.3466 76.1214 63.5754V48.5072C76.1214 47.7361 75.7063 47.0207 75.0432 46.6351L62.0245 39.101C61.6905 38.9083 61.321 38.8119 60.9464 38.8119Z" fill="#61BD73"/>
</g>
<path id="Vector_56" d="M64.5286 51.3027V55.7217L60.9449 53.6467L57.3612 55.7217V51.3027L53.1094 53.7684V58.4462L57.1385 60.7799L60.9449 58.5781L64.7513 60.7799L68.7804 58.4462V53.7735L64.5286 51.3027Z" fill="#61BD73"/>
</g>
</g>
<defs>
<clipPath id="clip0_9299_984">
<rect width="121" height="115" fill="white"/>
</clipPath>
</defs>
</svg>
